<svg xmlns="http://www.w3.org/2000/svg" viewBox="0 0 78.46 116.68"><defs><style>.cls-1{fill:#fff;fill-rule:evenodd;}</style></defs><title>Font Awesome</title><g id="Capa_2" data-name="Capa 2"><path class="cls-1" d="M37.17,104.82V62.23a35.81,35.81,0,0,0,3.59.18,30.8,30.8,0,0,0,15.85-4.34v46.75c0,4-.93,6.94-2.72,8.9a9.13,9.13,0,0,1-7.06,3,8.92,8.92,0,0,1-6.94-3c-1.79-2-2.72-4.92-2.72-8.85"/><path class="cls-1" d="M37.29,2.75c12-4.34,25.74-4.11,36.05,4.8,1.9,1.8,4.1,4.05,5,6.71,1,3.36-3.64-.34-4.27-.81A46.17,46.17,0,0,0,63.55,8.13c-20.25-6.24-39.4,5-51.32,22.57C7.25,38.45,4,46.61,1.35,55.58a14.3,14.3,0,0,1-1,3.12c-.52,1-.23-2.66-.23-2.77A75.17,75.17,0,0,1,2.17,45.05C7.66,26,19.81,10,37.29,2.75"/><path class="cls-1" d="M53,50.14a14.67,14.67,0,1,1,6.43-19.73A14.62,14.62,0,0,1,53,50.14"/></g></svg>