<svg xmlns="http://www.w3.org/2000/svg" viewBox="0 0 100.01 95.58"><defs><style>.cls-1{fill:#fff;}</style></defs><title>Font Awesome</title><g id="Capa_2" data-name="Capa 2"><path class="cls-1" d="M12,22.27h-.13C4.62,22.27,0,17.32,0,11.13S4.82,0,12.11,0,24,4.82,24.09,11.13,19.47,22.27,12,22.27ZM22.72,95.58H1.24V31.06H22.72Zm77.29,0H78.59V61.07c0-8.66-3.13-14.58-10.88-14.58-5.92,0-9.44,4-11,7.81A16.15,16.15,0,0,0,56,59.57v36H34.57c.26-58.47,0-64.52,0-64.52H56v9.37h-.13c2.8-4.42,7.88-10.87,19.47-10.87,14.13,0,24.68,9.25,24.68,29Z"/></g></svg>